#Comment line ignore any data following # character 
#Hierarchical Translation and Rotation (.htr) file 
[Header]	
#Header keywords are followed by a single value 
FileType HTR		#Single word string
DataType HTRS		#Translation followed by rotation and scale data
FileVersion 1		#integer
NumSegments 84		#integer
NumFrames 2		#integer
DataFrameRate 30		#integer, data frame rate in this file
EulerRotationOrder ZYX
CalibrationUnits mm
RotationUnits Degrees
GlobalAxisofGravity Y
BoneLengthAxis Y
ScaleFactor 1.00
[SegmentNames&Hierarchy]
#CHILD	PARENT
MASTER GLOBAL
root MASTER
chest root
L_mid_tent01 root
R_mid_tent01 root
spine01 root
Bip01_Neck chest
L_humerus chest
R_humerus chest
weapon_bone chest
Bip01_Head Bip01_Neck
eye_left_bone Bip01_Head
eye_right_bone Bip01_Head
L_forearm L_humerus
L_front_hand L_forearm
L_weapon_bone L_forearm
L_front_hand01_01 L_front_hand
L_front_hand02_01 L_front_hand
L_front_hand03_01 L_front_hand
L_front_hand01_02 L_front_hand01_01
L_front_hand02_02 L_front_hand02_01
L_front_hand03_02 L_front_hand03_01
R_forearm R_humerus
R_front_hand R_forearm
R_weapon_bone R_forearm
R_front_hand01_01 R_front_hand
R_front_hand02_01 R_front_hand
R_front_hand03_01 R_front_hand
R_front_hand01_02 R_front_hand01_01
R_front_hand02_02 R_front_hand02_01
R_front_hand03_02 R_front_hand03_01
null_rope01_connect L_mid_tent01
Rope1_Seg01 null_rope01_connect
Rope1_Seg02 Rope1_Seg01
Rope1_Seg03 Rope1_Seg02
Rope1_Seg04 Rope1_Seg03
Rope1_Seg05 Rope1_Seg04
Rope1_Seg06 Rope1_Seg05
Rope1_Seg07 Rope1_Seg06
Rope1_Seg09 Rope1_Seg07
L_mid_hand01 Rope1_Seg09
L_mid_hand02 Rope1_Seg09
L_mid_hand03 Rope1_Seg09
null_rope02_connect R_mid_tent01
Rope2_Seg01 null_rope02_connect
Rope2_Seg02 Rope2_Seg01
Rope2_Seg03 Rope2_Seg02
Rope2_Seg04 Rope2_Seg03
Rope2_Seg05 Rope2_Seg04
Rope2_Seg06 Rope2_Seg05
Rope2_Seg07 Rope2_Seg06
Rope2_Seg09 Rope2_Seg07
R_mid_hand01 Rope2_Seg09
R_mid_hand02 Rope2_Seg09
R_mid_hand03 Rope2_Seg09
spine02 spine01
spine03 spine02
pelvis spine03
null_rope03_connect pelvis
null_rope04_connect pelvis
Rope3_Seg01 null_rope03_connect
Rope3_Seg02 Rope3_Seg01
Rope3_Seg03 Rope3_Seg02
Rope3_Seg04 Rope3_Seg03
Rope3_Seg05 Rope3_Seg04
Rope3_Seg06 Rope3_Seg05
Rope3_Seg07 Rope3_Seg06
Rope3_Seg08 Rope3_Seg07
Rope3_Seg09 Rope3_Seg08
R_rear_hand01 Rope3_Seg09
R_rear_hand02 Rope3_Seg09
R_rear_hand03 Rope3_Seg09
Rope4_Seg01 null_rope04_connect
Rope4_Seg02 Rope4_Seg01
Rope4_Seg03 Rope4_Seg02
Rope4_Seg04 Rope4_Seg03
Rope4_Seg05 Rope4_Seg04
Rope4_Seg06 Rope4_Seg05
Rope4_Seg07 Rope4_Seg06
Rope4_Seg08 Rope4_Seg07
Rope4_Seg09 Rope4_Seg08
L_rear_hand01 Rope4_Seg09
L_rear_hand02 Rope4_Seg09
L_rear_hand03 Rope4_Seg09
[BasePosition]
#SegmentName Tx, Ty, Tz, Rx, Ry, Rz, BoneLength
MASTER 0.000000 0.000000 0.000000 -90.000000 0.000000 0.000000 10.000000 
root 0.000000 0.000000 0.000000 0.000000 0.000000 0.000000 10.000000 
chest 0.000000 0.000000 0.000000 0.000000 0.000000 0.000000 10.000000 
L_mid_tent01 0.000000 0.000000 0.000000 0.000000 0.000000 0.000000 10.000000 
R_mid_tent01 0.000000 0.000000 0.000000 0.000000 0.000000 0.000000 10.000000 
spine01 0.000000 0.000000 0.000000 0.000000 0.000000 0.000000 10.000000 
Bip01_Neck 0.000000 0.000000 0.000000 0.000000 0.000000 0.000000 10.000000 
L_humerus 0.000000 0.000000 0.000000 0.000000 0.000000 0.000000 10.000000 
R_humerus 0.000000 0.000000 0.000000 0.000000 0.000000 0.000000 10.000000 
weapon_bone 0.000000 0.000000 0.000000 0.000000 0.000000 0.000000 10.000000 
Bip01_Head 0.000000 0.000000 0.000000 0.000000 0.000000 0.000000 10.000000 
eye_left_bone 0.000000 0.000000 0.000000 0.000000 0.000000 0.000000 10.000000 
eye_right_bone 0.000000 0.000000 0.000000 0.000000 0.000000 0.000000 10.000000 
L_forearm 0.000000 0.000000 0.000000 0.000000 0.000000 0.000000 10.000000 
L_front_hand 0.000000 0.000000 0.000000 0.000000 0.000000 0.000000 10.000000 
L_weapon_bone 0.000000 0.000000 0.000000 0.000000 0.000000 0.000000 10.000000 
L_front_hand01_01 0.000000 0.000000 0.000000 0.000000 0.000000 0.000000 10.000000 
L_front_hand02_01 0.000000 0.000000 0.000000 0.000000 0.000000 0.000000 10.000000 
L_front_hand03_01 0.000000 0.000000 0.000000 0.000000 0.000000 0.000000 10.000000 
L_front_hand01_02 0.000000 0.000000 0.000000 0.000000 0.000000 0.000000 10.000000 
L_front_hand02_02 0.000000 0.000000 0.000000 0.000000 0.000000 0.000000 10.000000 
L_front_hand03_02 0.000000 0.000000 0.000000 0.000000 0.000000 0.000000 10.000000 
R_forearm 0.000000 0.000000 0.000000 0.000000 0.000000 0.000000 10.000000 
R_front_hand 0.000000 0.000000 0.000000 0.000000 0.000000 0.000000 10.000000 
R_weapon_bone 0.000000 0.000000 0.000000 0.000000 0.000000 0.000000 10.000000 
R_front_hand01_01 0.000000 0.000000 0.000000 0.000000 0.000000 0.000000 10.000000 
R_front_hand02_01 0.000000 0.000000 0.000000 0.000000 0.000000 0.000000 10.000000 
R_front_hand03_01 0.000000 0.000000 0.000000 0.000000 0.000000 0.000000 10.000000 
R_front_hand01_02 0.000000 0.000000 0.000000 0.000000 0.000000 0.000000 10.000000 
R_front_hand02_02 0.000000 0.000000 0.000000 0.000000 0.000000 0.000000 10.000000 
R_front_hand03_02 0.000000 0.000000 0.000000 0.000000 0.000000 0.000000 10.000000 
null_rope01_connect 0.000000 0.000000 0.000000 0.000000 0.000000 0.000000 10.000000 
Rope1_Seg01 0.000000 0.000000 0.000000 0.000000 0.000000 0.000000 10.000000 
Rope1_Seg02 0.000000 0.000000 0.000000 0.000000 0.000000 0.000000 10.000000 
Rope1_Seg03 0.000000 0.000000 0.000000 0.000000 0.000000 0.000000 10.000000 
Rope1_Seg04 0.000000 0.000000 0.000000 0.000000 0.000000 0.000000 10.000000 
Rope1_Seg05 0.000000 0.000000 0.000000 0.000000 0.000000 0.000000 10.000000 
Rope1_Seg06 0.000000 0.000000 0.000000 0.000000 0.000000 0.000000 10.000000 
Rope1_Seg07 0.000000 0.000000 0.000000 0.000000 0.000000 0.000000 10.000000 
Rope1_Seg09 0.000000 0.000000 0.000000 0.000000 0.000000 0.000000 10.000000 
L_mid_hand01 0.000000 0.000000 0.000000 0.000000 0.000000 0.000000 10.000000 
L_mid_hand02 0.000000 0.000000 0.000000 0.000000 0.000000 0.000000 10.000000 
L_mid_hand03 0.000000 0.000000 0.000000 0.000000 0.000000 0.000000 10.000000 
null_rope02_connect 0.000000 0.000000 0.000000 0.000000 0.000000 0.000000 10.000000 
Rope2_Seg01 0.000000 0.000000 0.000000 0.000000 0.000000 0.000000 10.000000 
Rope2_Seg02 0.000000 0.000000 0.000000 0.000000 0.000000 0.000000 10.000000 
Rope2_Seg03 0.000000 0.000000 0.000000 0.000000 0.000000 0.000000 10.000000 
Rope2_Seg04 0.000000 0.000000 0.000000 0.000000 0.000000 0.000000 10.000000 
Rope2_Seg05 0.000000 0.000000 0.000000 0.000000 0.000000 0.000000 10.000000 
Rope2_Seg06 0.000000 0.000000 0.000000 0.000000 0.000000 0.000000 10.000000 
Rope2_Seg07 0.000000 0.000000 0.000000 0.000000 0.000000 0.000000 10.000000 
Rope2_Seg09 0.000000 0.000000 0.000000 0.000000 0.000000 0.000000 10.000000 
R_mid_hand01 0.000000 0.000000 0.000000 0.000000 0.000000 0.000000 10.000000 
R_mid_hand02 0.000000 0.000000 0.000000 0.000000 0.000000 0.000000 10.000000 
R_mid_hand03 0.000000 0.000000 0.000000 0.000000 0.000000 0.000000 10.000000 
spine02 0.000000 0.000000 0.000000 0.000000 0.000000 0.000000 10.000000 
spine03 0.000000 0.000000 0.000000 0.000000 0.000000 0.000000 10.000000 
pelvis 0.000000 0.000000 0.000000 0.000000 0.000000 0.000000 10.000000 
null_rope03_connect 0.000000 0.000000 0.000000 0.000000 0.000000 0.000000 10.000000 
null_rope04_connect 0.000000 0.000000 0.000000 0.000000 0.000000 0.000000 10.000000 
Rope3_Seg01 0.000000 0.000000 0.000000 0.000000 0.000000 0.000000 10.000000 
Rope3_Seg02 0.000000 0.000000 0.000000 0.000000 0.000000 0.000000 10.000000 
Rope3_Seg03 0.000000 0.000000 0.000000 0.000000 0.000000 0.000000 10.000000 
Rope3_Seg04 0.000000 0.000000 0.000000 0.000000 0.000000 0.000000 10.000000 
Rope3_Seg05 0.000000 0.000000 0.000000 0.000000 0.000000 0.000000 10.000000 
Rope3_Seg06 0.000000 0.000000 0.000000 0.000000 0.000000 0.000000 10.000000 
Rope3_Seg07 0.000000 0.000000 0.000000 0.000000 0.000000 0.000000 10.000000 
Rope3_Seg08 0.000000 0.000000 0.000000 0.000000 0.000000 0.000000 10.000000 
Rope3_Seg09 0.000000 0.000000 0.000000 0.000000 0.000000 0.000000 10.000000 
R_rear_hand01 0.000000 0.000000 0.000000 0.000000 0.000000 0.000000 10.000000 
R_rear_hand02 0.000000 0.000000 0.000000 0.000000 0.000000 0.000000 10.000000 
R_rear_hand03 0.000000 0.000000 0.000000 0.000000 0.000000 0.000000 10.000000 
Rope4_Seg01 0.000000 0.000000 0.000000 0.000000 0.000000 0.000000 10.000000 
Rope4_Seg02 0.000000 0.000000 0.000000 0.000000 0.000000 0.000000 10.000000 
Rope4_Seg03 0.000000 0.000000 0.000000 0.000000 0.000000 0.000000 10.000000 
Rope4_Seg04 0.000000 0.000000 0.000000 0.000000 0.000000 0.000000 10.000000 
Rope4_Seg05 0.000000 0.000000 0.000000 0.000000 0.000000 0.000000 10.000000 
Rope4_Seg06 0.000000 0.000000 0.000000 0.000000 0.000000 0.000000 10.000000 
Rope4_Seg07 0.000000 0.000000 0.000000 0.000000 0.000000 0.000000 10.000000 
Rope4_Seg08 0.000000 0.000000 0.000000 0.000000 0.000000 0.000000 10.000000 
Rope4_Seg09 0.000000 0.000000 0.000000 0.000000 0.000000 0.000000 10.000000 
L_rear_hand01 0.000000 0.000000 0.000000 0.000000 0.000000 0.000000 10.000000 
L_rear_hand02 0.000000 0.000000 0.000000 0.000000 0.000000 0.000000 10.000000 
L_rear_hand03 0.000000 0.000000 0.000000 0.000000 0.000000 0.000000 10.000000 
#Beginning of Data. Separated by tabs
#Fr	Tx	Ty	Tz	Rx	Ry	Rz	SF
[MASTER]
39 613.294739 -10070.922852 141.812561 0.000000 -0.002347 -90.000000 10090.576172
40 319.421417 -10416.216797 84.056694 0.000000 -0.002347 -90.000000 10421.452148
[root]
39 -62.822289 16.502283 1500.000000 -94.711319 -17.589209 153.405792 1501.405640
40 -62.822289 16.502285 1500.000000 -88.018692 -17.732864 153.450699 1501.405640
[chest]
39 -84.512650 -34.090519 0.000000 15.440241 -2.992482 -173.798584 91.129311
40 -84.512650 -34.090519 0.000000 20.891205 -3.755524 -173.443893 91.129311
[L_mid_tent01]
39 27.300123 22.177572 -249.918259 -10.523414 -4.958227 -24.158922 252.381210
40 27.300140 22.177574 -249.918259 -9.379200 -3.401096 -19.330149 252.381210
[R_mid_tent01]
39 23.228794 24.509907 226.238495 177.897766 3.282743 17.398067 228.744751
40 23.228794 24.509907 226.238495 -177.963882 -7.721459 25.404161 228.744751
[spine01]
39 -0.361383 -0.195265 0.000000 0.001687 0.001632 1.890996 0.410763
40 -0.361383 -0.195265 0.000000 0.001687 0.001632 1.890996 0.410763
[Bip01_Neck]
39 165.484543 71.581718 0.000119 176.643677 -1.657967 43.431911 180.302734
40 165.484543 71.581718 0.000119 176.643677 -1.657967 43.431911 180.302734
[L_humerus]
39 -13.983130 -135.272980 -120.471481 95.673805 54.657120 -178.715820 181.680161
40 -13.983130 -135.272980 -120.471481 99.244003 58.641422 -174.192062 181.680161
[R_humerus]
39 -13.983309 -135.273102 125.287651 -170.615768 -71.398170 -94.445473 184.909012
40 -13.983309 -135.273102 125.287651 -170.720535 -71.189903 -94.333710 184.909012
[weapon_bone]
39 235.964890 -300.705902 0.000000 0.000000 -89.951546 -128.212341 382.234833
40 235.964890 -300.705902 0.000000 0.000000 -89.951546 -128.212341 382.234833
[Bip01_Head]
39 213.439117 185.730682 11.581341 18.223381 6.152122 -43.833611 283.171814
40 213.441696 185.723740 11.671840 18.849424 6.106314 -43.831455 283.172913
[eye_left_bone]
39 -24.626970 125.451866 -64.772606 0.000000 -90.000000 -99.840431 143.318359
40 -24.626970 125.451866 -64.772606 0.000000 -90.000000 -99.840431 143.318359
[eye_right_bone]
39 -24.626970 125.451866 64.327362 0.000000 -89.965736 80.156380 143.117676
40 -24.626970 125.451866 64.327362 0.000000 -89.965736 80.156380 143.117676
[L_forearm]
39 322.776093 0.000000 -0.000119 0.000119 -0.002344 -95.807457 322.776093
40 322.776093 0.000000 -0.000119 0.000119 -0.002344 -95.807457 322.776093
[L_front_hand]
39 241.149185 -0.042021 -3.300071 -178.667953 -1.835447 -27.422342 241.171753
40 241.149185 -0.042021 -3.300071 -178.667953 -1.835447 -27.422350 241.171753
[L_weapon_bone]
39 156.183838 0.000000 0.000000 0.000014 0.000007 0.000001 156.183838
40 156.183838 0.000000 0.000000 0.000014 0.000007 0.000001 156.183838
[L_front_hand01_01]
39 86.095154 20.947098 -0.655860 -0.366594 -0.477154 75.385574 88.609184
40 86.095154 20.947098 -0.655860 -0.366594 -0.477154 75.385574 88.609184
[L_front_hand02_01]
39 86.935165 -11.437475 24.513514 154.399796 -59.883835 -61.369587 91.046425
40 86.935165 -11.437475 24.513514 154.399796 -59.883835 -61.369587 91.046425
[L_front_hand03_01]
39 86.637497 -14.123976 -20.424902 -153.913849 58.118122 -62.702866 90.126129
40 86.637497 -14.123976 -20.424902 -153.913849 58.118122 -62.702866 90.126129
[L_front_hand01_02]
39 71.020905 -0.000179 0.000030 0.000334 -0.002323 -106.376259 71.020905
40 71.020905 -0.000179 0.000030 0.000334 -0.002323 -106.376938 71.020905
[L_front_hand02_02]
39 71.020927 -0.000119 0.000060 0.000334 -0.002323 -106.376259 71.020927
40 71.020927 -0.000119 0.000060 0.000334 -0.002323 -106.376938 71.020927
[L_front_hand03_02]
39 71.020905 -0.000060 0.000060 0.000334 -0.002323 -106.376259 71.020905
40 71.020905 -0.000060 0.000060 0.000334 -0.002323 -106.376938 71.020905
[R_forearm]
39 322.776428 -0.000060 0.000030 0.209504 0.012586 -94.339050 322.776428
40 322.776428 -0.000060 0.000030 0.209504 0.012586 -94.339050 322.776428
[R_front_hand]
39 238.847015 -0.006795 2.210259 -2.635298 -10.645461 -26.312506 238.857239
40 238.847015 -0.006795 2.210259 -2.635298 -10.645461 -26.312506 238.857239
[R_weapon_bone]
39 155.664093 0.002503 -0.000030 0.003487 0.001180 -90.988930 155.664078
40 155.664093 0.002503 -0.000030 0.003487 0.001180 -90.988930 155.664078
[R_front_hand01_01]
39 87.624611 14.231146 22.918642 -154.633499 -59.950619 61.746044 91.683487
40 87.624611 14.231146 22.918642 -154.633499 -59.950619 61.746044 91.683487
[R_front_hand02_01]
39 89.356956 14.367283 -19.491137 154.602661 58.302849 63.744389 92.579636
40 89.356956 14.367283 -19.491137 154.602661 58.302849 63.744389 92.579636
[R_front_hand03_01]
39 87.286232 -22.307278 -0.143439 0.162155 -0.423168 -75.767921 90.091743
40 87.286232 -22.307278 -0.143439 0.162155 -0.423168 -75.767921 90.091743
[R_front_hand01_02]
39 71.020905 0.000060 0.000119 0.002323 -0.000334 106.381714 71.020905
40 71.020905 0.000060 0.000119 0.002323 -0.000334 106.381714 71.020905
[R_front_hand02_02]
39 71.020844 -0.000030 -0.000119 0.002323 -0.000334 106.381714 71.020836
40 71.020844 -0.000030 -0.000119 0.002323 -0.000334 106.381714 71.020836
[R_front_hand03_02]
39 71.020905 0.000000 0.000030 0.002323 -0.000334 106.381714 71.020905
40 71.020905 0.000000 0.000030 0.002323 -0.000334 106.381714 71.020905
[null_rope01_connect]
39 328.732483 0.000000 -0.000238 118.121895 55.210548 66.571381 328.732483
40 328.732483 0.000000 -0.000238 105.487846 60.172070 51.019989 328.732483
[Rope1_Seg01]
39 0.000032 0.000843 0.000000 -22.269331 22.261959 67.306328 0.000844
40 0.000033 0.000866 0.000000 -44.791134 25.460688 71.371178 0.000866
[Rope1_Seg02]
39 139.999863 -0.000179 0.000000 35.182621 -2.614242 -3.619481 139.999863
40 139.999863 -0.000179 0.000000 17.865068 0.262356 -3.887887 139.999863
[Rope1_Seg03]
39 139.999924 0.000060 -0.000060 30.379507 -5.929722 -2.122651 139.999924
40 139.999924 0.000060 -0.000060 48.411575 -1.089274 -5.793087 139.999924
[Rope1_Seg04]
39 139.999924 -0.000060 -0.000119 23.309317 -12.975406 0.795314 139.999924
40 139.999924 -0.000060 -0.000119 64.324463 -9.278404 -8.486291 139.999924
[Rope1_Seg05]
39 139.999832 0.000119 -0.000060 -5.714146 -1.315963 5.883682 139.999832
40 139.999832 0.000119 -0.000060 -25.445230 3.085240 12.169003 139.999832
[Rope1_Seg06]
39 139.999954 0.000119 -0.000060 -7.737421 3.533996 2.153172 139.999954
40 139.999954 0.000119 -0.000060 -9.540407 0.526442 7.054297 139.999954
[Rope1_Seg07]
39 139.999985 0.000060 0.000000 -2.126898 0.265771 1.436212 139.999985
40 139.999985 0.000060 0.000000 -2.359978 -1.062856 3.338473 139.999985
[Rope1_Seg09]
39 121.602913 0.000119 -0.000089 -89.793175 -1.359789 0.847147 121.602913
40 121.602913 0.000119 -0.000089 -89.793175 -1.359789 0.847147 121.602913
[L_mid_hand01]
39 103.859421 1.038730 8.195221 130.544373 -67.584534 -38.866943 104.187431
40 103.859421 1.038730 8.195221 130.544373 -67.584534 -38.866943 104.187431
[L_mid_hand02]
39 105.572853 -4.139662 -10.864139 -168.923172 43.409309 -73.498886 106.211075
40 105.572853 -4.139662 -10.864139 -168.923172 43.409309 -73.498886 106.211075
[L_mid_hand03]
39 104.641464 17.579376 -3.913581 -6.012627 17.808174 74.893669 106.179977
40 104.641464 17.579376 -3.913581 -6.012627 17.808174 74.893669 106.179977
[null_rope02_connect]
39 328.732849 0.000179 -0.000119 -77.504288 -58.054451 -11.154991 328.732849
40 328.732849 0.000179 -0.000119 -105.116982 -70.839363 21.671785 328.732849
[Rope2_Seg01]
39 -0.000050 -0.000059 0.000000 95.748917 6.841162 49.677555 0.000077
40 -0.000049 -0.000055 0.000000 95.318489 4.675757 45.661610 0.000074
[Rope2_Seg02]
39 139.999741 -0.000060 -0.000119 -0.034672 -1.308717 1.016002 139.999756
40 139.999741 -0.000060 -0.000119 -0.003431 -0.631392 0.026404 139.999756
[Rope2_Seg03]
39 140.000107 0.000030 0.000000 -0.031606 -1.857751 1.441595 140.000107
40 140.000107 0.000030 0.000000 -0.003573 -0.908355 0.036311 140.000107
[Rope2_Seg04]
39 139.999802 0.000000 -0.000060 -0.055874 -3.876153 2.284966 139.999802
40 139.999802 0.000000 -0.000060 -0.035519 -1.942235 -0.433021 139.999802
[Rope2_Seg05]
39 139.999985 -0.000060 0.000119 -0.126209 -7.652606 5.395104 139.999985
40 139.999985 -0.000060 0.000119 -0.195793 -4.178637 -0.149564 139.999985
[Rope2_Seg06]
39 139.999893 -0.000030 -0.000119 1.178172 4.910254 3.527960 139.999893
40 139.999893 -0.000030 -0.000119 0.923635 2.646134 6.234733 139.999893
[Rope2_Seg07]
39 139.999893 0.000060 -0.000060 0.385876 2.286356 1.651723 139.999893
40 139.999893 0.000060 -0.000060 0.383340 1.144253 3.042666 139.999893
[Rope2_Seg09]
39 121.338966 0.000089 -0.000060 33.793236 -1.359788 -0.847141 121.338966
40 121.338966 0.000089 -0.000060 33.793236 -1.359788 -0.847141 121.338966
[R_mid_hand01]
39 104.680779 11.144459 -10.335981 -16.212061 45.237240 70.462852 105.778534
40 104.680779 11.144459 -10.335981 -16.212063 45.237247 70.462852 105.778534
[R_mid_hand02]
39 104.070427 2.443552 8.231699 49.067383 -67.749779 39.286449 104.424065
40 104.070427 2.443552 8.231699 49.067368 -67.749771 39.286453 104.424065
[R_mid_hand03]
39 106.028137 -11.221827 -5.996406 -177.101105 15.551026 -76.585571 106.788818
40 106.028137 -11.221827 -5.996406 -177.101105 15.551026 -76.585571 106.788818
[spine02]
39 129.756927 0.001550 0.000119 -1.023899 -3.926965 6.770993 129.756927
40 129.756927 0.001550 0.000119 -1.023899 -3.926965 6.770993 129.756927
[spine03]
39 78.614235 0.087543 -4.898901 1.040681 4.146420 4.212376 78.766777
40 78.614243 0.087549 -4.898902 1.040681 4.146420 4.212376 78.766785
[pelvis]
39 169.435242 0.051022 0.000000 -39.067345 -0.191517 -10.719797 169.435257
40 169.435242 0.051022 0.000000 -35.872887 -0.188689 -10.718829 169.435257
[null_rope03_connect]
39 -1.257226 -2.466202 137.391083 143.780838 33.888824 58.411343 137.418976
40 -1.257226 -2.466202 137.391083 136.982620 42.226593 54.488377 137.418976
[null_rope04_connect]
39 -1.259640 -2.480268 -137.844437 143.780838 33.888824 58.411343 137.872513
40 -1.259640 -2.480268 -137.844437 136.982620 42.226593 54.488377 137.872513
[Rope3_Seg01]
39 0.000032 0.000843 0.000000 -128.566803 -0.969827 76.762253 0.000844
40 0.000033 0.000866 0.000000 -127.722275 -4.047907 78.846046 0.000866
[Rope3_Seg02]
39 139.999924 -0.000119 0.000060 2.874057 6.879834 0.303317 139.999924
40 139.999924 -0.000119 0.000060 2.305727 6.183371 -0.260186 139.999924
[Rope3_Seg03]
39 139.999924 -0.000119 0.000119 2.430961 4.115929 -1.960376 139.999924
40 139.999924 -0.000119 0.000119 2.011227 3.819011 -2.376369 139.999924
[Rope3_Seg04]
39 139.999924 0.000119 0.000000 3.083396 6.687754 1.182972 139.999924
40 139.999924 0.000119 0.000000 2.794997 7.316425 1.746936 139.999924
[Rope3_Seg05]
39 139.999924 -0.000238 0.000060 4.457087 9.080407 5.307405 139.999924
40 139.999924 -0.000238 0.000060 3.650289 8.513325 4.993523 139.999924
[Rope3_Seg06]
39 139.999893 -0.000119 -0.000060 3.344328 4.755184 2.156153 139.999893
40 139.999893 -0.000119 -0.000060 2.739246 4.312662 1.842547 139.999893
[Rope3_Seg07]
39 139.999771 0.000060 -0.000119 2.705721 3.000287 1.037552 139.999771
40 139.999771 0.000060 -0.000119 2.324249 2.934075 1.045920 139.999771
[Rope3_Seg08]
39 139.999985 -0.000060 0.000000 2.043850 1.881425 0.554677 139.999985
40 139.999985 -0.000060 0.000000 1.786859 1.852532 0.579662 139.999985
[Rope3_Seg09]
39 90.185997 -0.000179 -0.000060 89.793228 -1.359877 -0.847183 90.185997
40 90.185997 -0.000179 -0.000060 89.793228 -1.359877 -0.847183 90.185997
[R_rear_hand01]
39 103.366196 -6.073594 -10.757982 -177.714203 24.565960 -73.910950 104.101845
40 103.366196 -6.073594 -10.757982 -177.714203 24.565960 -73.910950 104.101845
[R_rear_hand02]
39 100.509819 12.039542 -7.992327 -12.874827 36.868492 72.167221 101.543350
40 100.509819 12.039542 -7.992327 -12.874829 36.868488 72.167213 101.543350
[R_rear_hand03]
39 101.539970 5.215704 5.435467 71.484581 -71.816628 21.513813 101.819031
40 101.539970 5.215704 5.435467 71.484581 -71.816628 21.513813 101.819031
[Rope4_Seg01]
39 0.000007 0.000855 -0.000153 48.297779 -4.850543 85.389061 0.000869
40 0.000007 0.000877 -0.000153 47.905224 -8.016706 85.974785 0.000890
[Rope4_Seg02]
39 139.999985 0.000060 0.000119 0.272692 -7.600723 -3.407259 139.999985
40 139.999985 0.000060 0.000119 0.215291 -7.597519 -2.768756 139.999985
[Rope4_Seg03]
39 139.999924 0.000000 -0.000238 0.602826 -10.754435 -2.901812 139.999924
40 139.999924 0.000000 -0.000238 0.765745 -12.059922 -1.441938 139.999924
[Rope4_Seg04]
39 139.999985 0.000000 0.000119 0.438226 -10.857066 -5.531723 139.999985
40 139.999985 0.000000 0.000119 0.113330 -9.944796 -6.077494 139.999985
[Rope4_Seg05]
39 139.999802 -0.000060 -0.000119 -3.520836 3.406936 -6.442575 139.999802
40 139.999802 -0.000060 -0.000119 -5.598605 5.679940 -9.840816 139.999802
[Rope4_Seg06]
39 139.999924 0.000000 0.000060 -1.033471 1.104937 -2.179778 139.999924
40 139.999924 0.000000 0.000060 -1.604878 1.606767 -3.404850 139.999924
[Rope4_Seg07]
39 139.999802 0.000000 0.000000 -0.446521 0.278708 -1.250721 139.999802
40 139.999802 0.000000 0.000000 -0.833408 0.793322 -2.012259 139.999802
[Rope4_Seg08]
39 139.999924 0.000000 0.000119 -1.799801 0.173081 -0.738065 139.999924
40 139.999924 0.000000 0.000119 -2.026468 0.490050 -1.194188 139.999924
[Rope4_Seg09]
39 90.185791 0.000060 0.000060 -135.617828 2.228885 0.850567 90.185791
40 90.185791 0.000060 0.000060 -135.617828 2.228885 0.850567 90.185791
[L_rear_hand01]
39 101.696655 -8.392275 -7.654577 -12.874829 -36.868488 107.832764 102.329041
40 101.696655 -8.392275 -7.654577 -12.874834 -36.868492 107.832779 102.329041
[L_rear_hand02]
39 102.726799 -1.568258 5.773216 71.484581 71.816628 158.486160 102.900848
40 102.726799 -1.568258 5.773216 71.484627 71.816643 158.486160 102.900848
[L_rear_hand03]
39 104.552910 9.721220 -10.420293 -177.714203 -24.565960 -106.089035 105.519653
40 104.552910 9.721220 -10.420293 -177.714203 -24.565960 -106.089035 105.519653
